<svg xmlns="http://www.w3.org/2000/svg" width="60" height="60" viewBox="0 0 60 60">
    <g fill="none" fill-rule="evenodd">
        <path d="M0 0h60v60H0z"/>
        <path fill="#CCC" d="M30 21.111V14H12v32h36V21.111H30zM19.2 42.444h-3.6V38.89h3.6v3.555zm0-7.11h-3.6v-3.556h3.6v3.555zm0-7.112h-3.6v-3.555h3.6v3.555zm0-7.11h-3.6v-3.556h3.6v3.555zm7.2 21.332h-3.6V38.89h3.6v3.555zm0-7.11h-3.6v-3.556h3.6v3.555zm0-7.112h-3.6v-3.555h3.6v3.555zm0-7.11h-3.6v-3.556h3.6v3.555zm18 21.332H30V38.89h3.6v-3.556H30v-3.555h3.6v-3.556H30v-3.555h14.4v17.777zm-3.6-14.222h-3.6v3.556h3.6v-3.556zm0 7.111h-3.6v3.556h3.6v-3.556z"/>
    </g>
</svg>
