<svg xmlns="http://www.w3.org/2000/svg" xmlns:xlink="http://www.w3.org/1999/xlink" width="24" height="24" viewBox="0 0 24 24">
    <defs>
        <path id="a" d="M12 17.706a5.627 5.627 0 0 0 2.882-.765 5.755 5.755 0 0 0 2.06-2.059c.509-.875.764-1.836.764-2.882a5.627 5.627 0 0 0-.765-2.882 5.755 5.755 0 0 0-2.059-2.06A5.627 5.627 0 0 0 12 6.295a5.627 5.627 0 0 0-2.882.765 5.755 5.755 0 0 0-2.06 2.059A5.627 5.627 0 0 0 6.295 12c0 1.046.255 2.007.765 2.882a5.755 5.755 0 0 0 2.059 2.06c.875.509 1.836.764 2.882.764zm7.314-6.51h.882a.804.804 0 1 1 0 1.608h-.882a7.104 7.104 0 0 1-1.079 3.108 7.439 7.439 0 0 1-2.323 2.323 7.104 7.104 0 0 1-3.108 1.079v.882a.804.804 0 1 1-1.608 0v-.882a7.036 7.036 0 0 1-3.098-1.079 7.477 7.477 0 0 1-2.314-2.323 7.301 7.301 0 0 1-1.098-3.108h-.882a.804.804 0 0 1 0-1.608h.882a7.301 7.301 0 0 1 1.098-3.108 7.477 7.477 0 0 1 2.314-2.323 7.036 7.036 0 0 1 3.098-1.079v-.882a.804.804 0 1 1 1.608 0v.882a7.104 7.104 0 0 1 3.108 1.079 7.439 7.439 0 0 1 2.323 2.323c.602.948.961 1.984 1.079 3.108zM12 8.746c.588 0 1.13.146 1.627.44.497.294.893.69 1.187 1.187.294.496.44 1.039.44 1.627 0 .588-.146 1.13-.44 1.627-.294.497-.69.893-1.187 1.187a3.137 3.137 0 0 1-1.627.44c-.588 0-1.13-.146-1.627-.44a3.328 3.328 0 0 1-1.187-1.187A3.137 3.137 0 0 1 8.746 12c0-.588.146-1.13.44-1.627.294-.497.69-.893 1.187-1.187A3.137 3.137 0 0 1 12 8.746z"/>
    </defs>
    <g fill="none" fill-rule="evenodd">
        <path d="M0 0h24v24H0z"/>
        <mask id="b" fill="#fff">
            <use xlink:href="#a"/>
        </mask>
        <use fill="#448AFF" xlink:href="#a"/>
        <g fill="#448AFF" mask="url(#b)">
            <path d="M-38-38H62V62H-38z"/>
        </g>
    </g>
</svg>
