<svg xmlns="http://www.w3.org/2000/svg" xmlns:xlink="http://www.w3.org/1999/xlink" width="22" height="22" viewBox="0 0 22 22">
    <defs>
        <path id="a" d="M17.567 7.737a2.346 2.346 0 0 0-2.098-2.335 2.341 2.341 0 0 0-2.194-1.533c-.442 0-.853.124-1.205.336A2.34 2.34 0 0 0 10.025 3c-1.166 0-2.13.856-2.31 1.974A2.345 2.345 0 0 0 5.092 7.49a2.345 2.345 0 0 0-.219 3.811c-.002.043-.006.085-.006.127a2.345 2.345 0 0 0 2.342 2.349c.388 0 .752-.096 1.074-.263.447.32 1.086.723 1.395.643 0 0 .115 1.787.09 2.24-.047.864-.306 1.825-.487 2.603h2.816s-.415-1.734-.433-2.313c-.019-.58.18-1.645.18-1.645l.977-1.013a2.347 2.347 0 0 0 3.65-1.701 2.35 2.35 0 0 0 .94-3.756c.1-.26.156-.54.156-.835zm-8.742 5.389c.187-.18.345-.39.465-.623l.46.966s-.25.11-.925-.343zm1.72.596c-.239.044-.644-.69-.932-1.288a2.324 2.324 0 0 0 1.352.237c-.074.478-.204 1.012-.42 1.051zm1.01.47c-.55.154-.22-.99-.063-1.65.114-.043.225-.093.33-.153.063.482.272.917.582 1.262-.269.238-.577.466-.849.541z"/>
    </defs>
    <g fill="none" fill-rule="evenodd">
        <path d="M0 0h22v22H0z"/>
        <mask id="b" fill="#fff">
            <use xlink:href="#a"/>
        </mask>
        <use fill="#767676" fill-rule="nonzero" xlink:href="#a"/>
        <g fill="#767676" mask="url(#b)">
            <path d="M-38-41H62V59H-38z"/>
        </g>
    </g>
</svg>
