<svg xmlns="http://www.w3.org/2000/svg" xmlns:xlink="http://www.w3.org/1999/xlink" width="32" height="32" viewBox="0 0 32 32">
    <defs>
        <path id="a" d="M14.719 12.094V9.469h2.562v2.625H14.72zM16 26.438c1.875 0 3.625-.48 5.25-1.438A10.12 10.12 0 0 0 25 21.25 10.158 10.158 0 0 0 26.438 16c0-1.875-.48-3.625-1.438-5.25A10.12 10.12 0 0 0 21.25 7 10.158 10.158 0 0 0 16 5.562c-1.875 0-3.625.48-5.25 1.438A10.12 10.12 0 0 0 7 10.75 10.158 10.158 0 0 0 5.562 16c0 1.875.48 3.625 1.438 5.25A10.12 10.12 0 0 0 10.75 25 10.158 10.158 0 0 0 16 26.438zM16 3c2.375 0 4.573.594 6.594 1.781a12.321 12.321 0 0 1 4.625 4.625C28.406 11.427 29 13.625 29 16s-.594 4.573-1.781 6.594a12.321 12.321 0 0 1-4.625 4.625C20.573 28.406 18.375 29 16 29s-4.573-.594-6.594-1.781a12.554 12.554 0 0 1-4.625-4.657A12.728 12.728 0 0 1 3 16c0-2.354.594-4.542 1.781-6.563a12.794 12.794 0 0 1 4.657-4.656A12.728 12.728 0 0 1 16 3zm-1.281 19.531V14.72h2.562v7.812H14.72z"/>
    </defs>
    <g fill="none" fill-rule="evenodd">
        <path d="M0 0h32v32H0z"/>
        <mask id="b" fill="#fff">
            <use xlink:href="#a"/>
        </mask>
        <use fill="#FFD600" xlink:href="#a"/>
        <g fill="#FFD600" mask="url(#b)">
            <path d="M-34-33H66V67H-34z"/>
        </g>
    </g>
</svg>
