<svg xmlns="http://www.w3.org/2000/svg" xmlns:xlink="http://www.w3.org/1999/xlink" width="100" height="100" viewBox="0 0 100 100">
    <defs>
        <circle id="b" cx="49" cy="48" r="40"/>
        <filter id="a" width="140%" height="140%" x="-18.8%" y="-17.5%" filterUnits="objectBoundingBox">
            <feOffset dx="1" dy="2" in="SourceAlpha" result="shadowOffsetOuter1"/>
            <feGaussianBlur in="shadowOffsetOuter1" result="shadowBlurOuter1" stdDeviation="5"/>
            <feColorMatrix in="shadowBlurOuter1" values="0 0 0 0 0.266666667 0 0 0 0 0.541176471 0 0 0 0 1 0 0 0 0.5 0"/>
        </filter>
    </defs>
    <g fill="none" fill-rule="evenodd">
        <g>
            <use fill="#000" filter="url(#a)" xlink:href="#b"/>
            <use fill="#448AFF" xlink:href="#b"/>
        </g>
        <path d="M28 27h42v42H28z"/>
        <path fill="#FFF" fill-rule="nonzero" d="M61.387 44.546l-12.415-8.805-12.513 8.805v15.418h24.928V44.546zm-10.042 12.58c-1.33-1.74-3.585-4.996-3.807-7.322 0 0 .043 4.53 1.672 7.987a1.49 1.49 0 0 1-.156.012c-.573.004-5.455-.114-5.501-6.497-.046-6.382 6.527-10.005 6.527-10.005-1.34 6.442 4.267 6.755 4.299 11.185.019 2.565-1.576 3.936-3.034 4.64zM33.287 45.188c-.446 0-.888-.195-1.177-.567a1.381 1.381 0 0 1 .297-1.98L48.1 31.607a1.514 1.514 0 0 1 1.765.006l15.736 11.108c.645.471.772 1.358.283 1.981-.49.623-1.41.746-2.056.273L48.972 34.512 34.164 44.908c-.263.189-.57.28-.877.28z"/>
    </g>
</svg>
