<svg xmlns="http://www.w3.org/2000/svg" xmlns:xlink="http://www.w3.org/1999/xlink" width="22" height="22" viewBox="0 0 22 22">
    <defs>
        <path id="a" d="M17.488 9.924l-6.503-4.612-6.554 4.612V18h13.057V9.924zm-5.26 6.59c-.696-.912-1.877-2.617-1.994-3.836 0 0 .023 2.373.876 4.184a.78.78 0 0 1-.082.006c-.3.002-2.857-.06-2.881-3.403-.024-3.343 3.419-5.24 3.419-5.24-.702 3.374 2.235 3.538 2.251 5.858.01 1.344-.825 2.062-1.589 2.43zM2.77 10.26a.779.779 0 0 1-.617-.298.724.724 0 0 1 .156-1.037l8.22-5.779a.793.793 0 0 1 .924.003l8.243 5.819a.723.723 0 0 1 .148 1.038.788.788 0 0 1-1.077.143l-7.782-5.482-7.756 5.446a.787.787 0 0 1-.46.147z"/>
    </defs>
    <g fill="none" fill-rule="evenodd">
        <path d="M0 0h22v22H0z"/>
        <mask id="b" fill="#fff">
            <use xlink:href="#a"/>
        </mask>
        <use fill="#767676" fill-rule="nonzero" xlink:href="#a"/>
        <g fill="#767676" mask="url(#b)">
            <path d="M-39-44H61V56H-39z"/>
        </g>
    </g>
</svg>
