<svg xmlns="http://www.w3.org/2000/svg" width="133" height="37" viewBox="0 0 133 37">
    <g fill="#FFF" fill-rule="evenodd">
        <path d="M12.818 20V5.3H8.975v5.313H4.418V5.3H.575V20h3.843v-5.88h4.557V20h3.843zM25.145 5.3h-9.177V20h9.366v-3.507h-5.523v-2.394h4.914v-3.36h-4.914v-2.1h5.334V5.3zm9.282 8.463h-2.688v2.877h2.688c1.05 0 1.554-.735 1.554-1.449 0-.756-.525-1.428-1.554-1.428zM31.739 8.66v1.911h2.709c3.549 0 5.271 2.016 5.271 4.599 0 2.604-1.764 4.83-5.271 4.83H27.98V5.3h10.563v3.36h-6.804zm18.753 9.513H44.99L44.15 20h-4.011v-.525L46.88 5.153h1.764l6.678 14.322V20h-3.969l-.861-1.827zm-2.751-6.762l-1.512 3.549h3.045l-1.533-3.549zM57.8 20.042h-1.134V5.3h3.843v7.182l7.665-7.245h1.197V20h-3.843v-7.581L57.8 20.042zM62.231.89c.042.735.525 1.113 1.365 1.113S64.961 1.73 65.087.89c.714.042 1.386.126 2.079.21-.084 2.247-1.302 3.423-3.528 3.423-2.163 0-3.423-1.176-3.486-3.423l2.079-.21zm15.855 7.707l-.672 6.405c-.042.588-.21 1.449-.672 1.827h4.326V8.597h-2.982zm-6.531 8.148h.546c1.134-.021 1.365-.504 1.533-1.869L74.747 5.3H84.89v11.445h1.47v4.977h-3.108V20h-8.778v1.722h-2.919v-4.977zm20.475-.84c-.714 1.554-1.575 1.533-2.961 1.029l-.504 2.709c4.074 1.512 5.817.252 7.287-3.108l5.313-10.836V5.3h-4.074l-2.478 5.649h-.126L91.694 5.3h-4.221v.483l5.061 9.072-.504 1.05zM122.774 20v-.567a1146.111 1146.111 0 0 1-4.2-6.573c.819-.882 1.239-2.205 1.68-3.969.252-.966 1.071-1.134 1.911-.966V5.342c-2.478-.567-4.767-.252-5.292 2.52-.21.966-.525 2.373-1.449 2.898-.357.231-.84.252-1.428.252V5.3h-3.801v5.712c-.588 0-1.05-.021-1.407-.252-.945-.525-1.26-1.932-1.449-2.898-.546-2.772-2.835-3.087-5.313-2.52v2.583c.861-.168 1.68 0 1.911.966.441 1.764.861 3.087 1.701 3.969a1146.111 1146.111 0 0 0-4.2 6.573V20h4.326c1.071-1.89 2.142-3.78 3.213-5.649.441.042.693.084 1.218.084V20h3.801v-5.565c.546 0 .777-.042 1.239-.084 1.05 1.869 2.121 3.759 3.192 5.649h4.347zm7.119-3.108V8.408h1.701V5.3h-7.245v3.108h1.701v8.484h-1.869V20h7.581v-3.108h-1.869z"/>
        <path fill-opacity=".6" d="M93.498 31.559c0 .761-.183 1.376-.55 1.843-.365.467-.87.7-1.51.7-.349 0-.652-.067-.909-.202a1.689 1.689 0 0 1-.64-.598l-.117.698h-.786v-7.617h.962v2.959a1.67 1.67 0 0 1 .618-.537c.246-.124.533-.186.862-.186.65 0 1.159.26 1.523.781.365.521.547 1.206.547 2.056v.103zm-.962-.103c0-.605-.111-1.1-.334-1.482-.223-.382-.563-.574-1.018-.574-.297 0-.546.073-.75.218-.203.145-.365.339-.486.583v2.29c.124.26.286.464.486.61.2.147.453.22.76.22.452 0 .789-.16 1.01-.483.221-.322.332-.749.332-1.28v-.102zm3.75.586l.171.664h.03l1.298-3.99h1.07l-2.222 6.095a2.74 2.74 0 0 1-.574.927c-.249.264-.585.396-1.008.396a3.104 3.104 0 0 1-.576-.078l.097-.757c-.02-.003.039 0 .174.01.135.01.22.014.256.014a.594.594 0 0 0 .503-.273c.13-.182.24-.384.327-.606l.23-.551-1.963-5.176h1.074l1.113 3.325zM103.381 34h-.967v-7.11h.967V34zm2.49-5.283l.068.693c.173-.25.392-.445.657-.583.265-.139.574-.208.925-.208.352 0 .654.082.906.244.253.163.442.407.57.733.165-.3.385-.537.658-.713a1.73 1.73 0 0 1 .957-.264c.537 0 .962.185 1.275.554.312.37.468.926.468 1.668V34h-.961v-3.169c0-.52-.09-.89-.269-1.106-.179-.216-.446-.325-.8-.325a1.02 1.02 0 0 0-.8.342 1.488 1.488 0 0 0-.358.864V34h-.967v-3.169c0-.495-.092-.857-.276-1.086-.184-.23-.448-.345-.793-.345-.293 0-.534.06-.723.181-.189.12-.333.29-.434.508V34h-.962v-5.283h.86zm12.383 2.842c0 .761-.182 1.376-.547 1.843-.365.467-.867.7-1.509.7-.325 0-.61-.054-.857-.163a1.639 1.639 0 0 1-.627-.49v2.582h-.962v-7.314h.737l.152.683c.172-.254.387-.447.644-.58.257-.134.557-.2.899-.2.654 0 1.163.259 1.525.778.363.52.545 1.205.545 2.058v.103zm-.962-.103c0-.599-.118-1.091-.354-1.477-.236-.386-.584-.579-1.042-.579-.277 0-.513.063-.709.188a1.406 1.406 0 0 0-.473.516v2.553c.12.218.278.388.474.51.195.123.434.184.717.184.456 0 .801-.167 1.035-.5.235-.335.352-.765.352-1.292v-.103zm5.39 2.544c-.032-.16-.057-.3-.075-.422a3.1 3.1 0 0 1-.032-.369 2.243 2.243 0 0 1-.7.637c-.289.171-.599.257-.93.257-.55 0-.97-.141-1.258-.423-.288-.281-.432-.67-.432-1.164 0-.505.204-.9.613-1.184.408-.285.962-.428 1.662-.428h1.045v-.522c0-.31-.094-.554-.283-.735-.189-.18-.456-.271-.8-.271-.31 0-.561.079-.755.237-.194.158-.29.347-.29.569h-.919l-.01-.03c-.019-.384.162-.735.545-1.054.382-.32.876-.479 1.482-.479.599 0 1.08.152 1.445.457.365.304.547.743.547 1.316v2.544c0 .188.01.37.03.546.019.176.055.349.107.518h-.991zm-1.596-.703c.348 0 .662-.09.942-.269.28-.179.463-.384.547-.615v-.86h-1.079c-.387 0-.697.098-.93.294-.233.195-.35.424-.35.688 0 .235.074.42.22.557.147.137.363.205.65.205zm5.996.054c.319 0 .6-.099.842-.296.243-.197.364-.438.364-.725h.864l.01.03c.016.455-.186.86-.608 1.213-.421.353-.912.53-1.472.53-.768 0-1.356-.251-1.763-.752-.407-.502-.61-1.132-.61-1.89v-.205c0-.752.204-1.38.613-1.882.408-.503.995-.755 1.76-.755.619 0 1.124.182 1.516.547a1.7 1.7 0 0 1 .569 1.343l-.01.03h-.869c0-.323-.114-.597-.342-.824a1.176 1.176 0 0 0-.864-.339c-.505 0-.865.181-1.082.544-.216.363-.324.809-.324 1.336v.205c0 .54.107.99.322 1.35.215.36.576.54 1.084.54zm4.429-5.909v1.275h1v.713h-1v3.208c0 .247.051.421.154.522.102.101.238.152.407.152a1.12 1.12 0 0 0 .361-.068l.128.658a.849.849 0 0 1-.315.144 1.592 1.592 0 0 1-.418.057c-.39 0-.701-.118-.932-.354-.232-.236-.347-.607-.347-1.111V29.43h-.84v-.713h.84v-1.275h.962z"/>
    </g>
</svg>
