<svg xmlns="http://www.w3.org/2000/svg" width="133" height="37" viewBox="0 0 133 37">
  <g fill="none" fill-rule="evenodd">
    <path fill="#448AFF" d="M34.427,13.763 L31.739,13.763 L31.739,16.64 L34.427,16.64 C35.477,16.64 35.981,15.905 35.981,15.191 C35.981,14.435 35.456,13.763 34.427,13.763 Z M31.739,8.66 L31.739,10.571 L34.448,10.571 C37.997,10.571 39.719,12.587 39.719,15.17 C39.719,17.774 37.955,20 34.448,20 L27.98,20 L27.98,5.3 L38.543,5.3 L38.543,8.66 L31.739,8.66 Z M50.492,18.173 L44.99,18.173 L44.15,20 L40.139,20 L40.139,19.475 L46.88,5.153 L48.644,5.153 L55.322,19.475 L55.322,20 L51.353,20 L50.492,18.173 Z M47.741,11.411 L46.229,14.96 L49.274,14.96 L47.741,11.411 Z M57.8,20.042 L56.666,20.042 L56.666,5.3 L60.509,5.3 L60.509,12.482 L68.174,5.237 L69.371,5.237 L69.371,20 L65.528,20 L65.528,12.419 L57.8,20.042 Z M62.231,0.89 C62.273,1.625 62.756,2.003 63.596,2.003 C64.436,2.003 64.961,1.73 65.087,0.89 C65.801,0.932 66.473,1.016 67.166,1.1 C67.082,3.347 65.864,4.523 63.638,4.523 C61.475,4.523 60.215,3.347 60.152,1.1 L62.231,0.89 Z M78.086,8.597 L77.414,15.002 C77.372,15.59 77.204,16.451 76.742,16.829 L81.068,16.829 L81.068,8.597 L78.086,8.597 Z M71.555,16.745 L72.101,16.745 C73.235,16.724 73.466,16.241 73.634,14.876 L74.747,5.3 L84.89,5.3 L84.89,16.745 L86.36,16.745 L86.36,21.722 L83.252,21.722 L83.252,20 L74.474,20 L74.474,21.722 L71.555,21.722 L71.555,16.745 Z M92.03,15.905 C91.316,17.459 90.455,17.438 89.069,16.934 L88.565,19.643 C92.639,21.155 94.382,19.895 95.852,16.535 L101.165,5.699 L101.165,5.3 L97.091,5.3 L94.613,10.949 L94.487,10.949 L91.694,5.3 L87.473,5.3 L87.473,5.783 L92.534,14.855 L92.03,15.905 Z M122.774,20 L122.774,19.433 C121.367,17.249 119.96,15.044 118.574,12.86 C119.393,11.978 119.813,10.655 120.254,8.891 C120.506,7.925 121.325,7.757 122.165,7.925 L122.165,5.342 C119.687,4.775 117.398,5.09 116.873,7.862 C116.663,8.828 116.348,10.235 115.424,10.76 C115.067,10.991 114.584,11.012 113.996,11.012 L113.996,5.3 L110.195,5.3 L110.195,11.012 C109.607,11.012 109.145,10.991 108.788,10.76 C107.843,10.235 107.528,8.828 107.339,7.862 C106.793,5.09 104.504,4.775 102.026,5.342 L102.026,7.925 C102.887,7.757 103.706,7.925 103.937,8.891 C104.378,10.655 104.798,11.978 105.638,12.86 C104.231,15.044 102.824,17.249 101.438,19.433 L101.438,20 L105.764,20 C106.835,18.11 107.906,16.22 108.977,14.351 C109.418,14.393 109.67,14.435 110.195,14.435 L110.195,20 L113.996,20 L113.996,14.435 C114.542,14.435 114.773,14.393 115.235,14.351 C116.285,16.22 117.356,18.11 118.427,20 L122.774,20 Z M129.893,16.892 L131.762,16.892 L131.762,20 L124.181,20 L124.181,16.892 L126.05,16.892 L126.05,8.408 L124.349,8.408 L124.349,5.3 L131.594,5.3 L131.594,8.408 L129.893,8.408 L129.893,16.892 Z M12.818,20 L8.975,20 L8.975,14.12 L4.418,14.12 L4.418,20 L0.575,20 L0.575,5.3 L4.418,5.3 L4.418,10.613 L8.975,10.613 L8.975,5.3 L12.818,5.3 L12.818,20 Z M25.145,5.3 L25.145,8.639 L19.811,8.639 L19.811,10.739 L24.725,10.739 L24.725,14.099 L19.811,14.099 L19.811,16.493 L25.334,16.493 L25.334,20 L15.968,20 L15.968,5.3 L25.145,5.3 Z"/>
    <path fill="#767676" d="M93.4980469,31.5585938 C93.4980469,32.3203163 93.3149432,32.9347307 92.9487305,33.4018555 C92.5825177,33.8689802 92.0787792,34.1025391 91.4375,34.1025391 C91.089191,34.1025391 90.7864596,34.0349942 90.5292969,33.8999023 C90.2721341,33.7648105 90.0589201,33.565431 89.8896484,33.3017578 L89.7724609,34 L88.9863281,34 L88.9863281,26.3828125 L89.9482422,26.3828125 L89.9482422,29.3417969 C90.1142586,29.1074207 90.3201485,28.928386 90.565918,28.8046875 C90.8116874,28.680989 91.0989567,28.6191406 91.4277344,28.6191406 C92.0787793,28.6191406 92.5865867,28.8795547 92.9511719,29.4003906 C93.315757,29.9212266 93.4980469,30.6064411 93.4980469,31.4560547 L93.4980469,31.5585938 Z M92.5361328,31.4560547 C92.5361328,30.8505829 92.424643,30.35661 92.2016602,29.9741211 C91.9786773,29.5916322 91.6393252,29.4003906 91.1835938,29.4003906 C90.8873683,29.4003906 90.6375336,29.4728183 90.434082,29.6176758 C90.2306305,29.7625333 90.0686855,29.95703 89.9482422,30.2011719 L89.9482422,32.4912109 C90.0719407,32.7516289 90.2338857,32.9550774 90.434082,33.1015625 C90.6342783,33.2480476 90.8873683,33.3212891 91.1933594,33.3212891 C91.6458356,33.3212891 91.9827463,33.1601579 92.2041016,32.8378906 C92.4254568,32.5156234 92.5361328,32.0891954 92.5361328,31.5585938 L92.5361328,31.4560547 Z M96.2861328,32.0419922 L96.4570312,32.7060547 L96.4863281,32.7060547 L97.7851562,28.7167969 L98.8544922,28.7167969 L96.6328125,34.8105469 C96.4993483,35.1653664 96.3081067,35.4746081 96.059082,35.7382812 C95.8100573,36.0019544 95.4739604,36.1337891 95.0507812,36.1337891 C94.9726559,36.1337891 94.873373,36.1248373 94.7529297,36.1069336 C94.6324864,36.0890299 94.5397139,36.0719402 94.4746094,36.0556641 L94.5722656,35.2988281 C94.5527343,35.2955729 94.6105136,35.2988281 94.7456055,35.3085938 C94.8806973,35.3183594 94.9661457,35.3232422 95.0019531,35.3232422 C95.2070323,35.3232422 95.3746738,35.2320973 95.5048828,35.0498047 C95.6350918,34.8675121 95.7441402,34.6656912 95.8320312,34.4443359 L96.0615234,33.8925781 L94.0986328,28.7167969 L95.1728516,28.7167969 L96.2861328,32.0419922 Z M103.380859,34 L102.414062,34 L102.414062,26.890625 L103.380859,26.890625 L103.380859,34 Z M105.871094,28.7167969 L105.939453,29.4101562 C106.11198,29.159504 106.330891,28.9650072 106.596191,28.8266602 C106.861492,28.6883131 107.16992,28.6191406 107.521484,28.6191406 C107.873049,28.6191406 108.174966,28.70052 108.427246,28.8632812 C108.679526,29.0260425 108.86914,29.2701807 108.996094,29.5957031 C109.16211,29.2962225 109.381835,29.0585946 109.655273,28.8828125 C109.928712,28.7070304 110.24772,28.6191406 110.612305,28.6191406 C111.149417,28.6191406 111.574217,28.8038719 111.886719,29.1733398 C112.19922,29.5428078 112.355469,30.0986291 112.355469,30.8408203 L112.355469,34 L111.393555,34 L111.393555,30.8310547 C111.393555,30.3102188 111.304037,29.9415701 111.125,29.7250977 C110.945963,29.5086252 110.679038,29.4003906 110.324219,29.4003906 C109.995441,29.4003906 109.72933,29.5143218 109.525879,29.7421875 C109.322427,29.9700532 109.2028,30.2581363 109.166992,30.6064453 L109.166992,34 L108.200195,34 L108.200195,30.8310547 C108.200195,30.3362605 108.108237,29.9741222 107.924316,29.7446289 C107.740396,29.5151356 107.475913,29.4003906 107.130859,29.4003906 C106.837889,29.4003906 106.597006,29.4606114 106.408203,29.5810547 C106.2194,29.701498 106.074545,29.8707671 105.973633,30.0888672 L105.973633,34 L105.011719,34 L105.011719,28.7167969 L105.871094,28.7167969 Z M118.253906,31.5585938 C118.253906,32.3203163 118.071616,32.9347307 117.707031,33.4018555 C117.342446,33.8689802 116.839521,34.1025391 116.198242,34.1025391 C115.87272,34.1025391 115.587078,34.0480149 115.341309,33.9389648 C115.095539,33.8299148 114.886394,33.6663422 114.713867,33.4482422 L114.713867,36.03125 L113.751953,36.03125 L113.751953,28.7167969 L114.489258,28.7167969 L114.640625,29.4003906 C114.813152,29.1464831 115.027994,28.9528001 115.285156,28.8193359 C115.542319,28.6858717 115.841795,28.6191406 116.183594,28.6191406 C116.837894,28.6191406 117.346515,28.8787409 117.709473,29.3979492 C118.07243,29.9171575 118.253906,30.6031858 118.253906,31.4560547 L118.253906,31.5585938 Z M117.291992,31.4560547 C117.291992,30.8570934 117.173992,30.364748 116.937988,29.9790039 C116.701984,29.5932598 116.354494,29.4003906 115.895508,29.4003906 C115.618814,29.4003906 115.382813,29.4630528 115.1875,29.5883789 C114.992187,29.7137051 114.83431,29.8854156 114.713867,30.1035156 L114.713867,32.6572266 C114.83431,32.8753266 114.992187,33.0454095 115.1875,33.1674805 C115.382813,33.2895514 115.622069,33.3505859 115.905273,33.3505859 C116.361005,33.3505859 116.706054,33.1837582 116.94043,32.8500977 C117.174806,32.5164371 117.291992,32.0859401 117.291992,31.5585938 L117.291992,31.4560547 Z M122.682617,34 C122.650065,33.840494 122.624837,33.6997076 122.606934,33.5776367 C122.58903,33.4555658 122.578451,33.3326829 122.575195,33.2089844 C122.396158,33.4628919 122.162599,33.6752921 121.874512,33.8461914 C121.586424,34.0170907 121.276369,34.1025391 120.944336,34.1025391 C120.394203,34.1025391 119.975099,33.9617527 119.687012,33.6801758 C119.398924,33.3985989 119.254883,33.0104191 119.254883,32.515625 C119.254883,32.0110652 119.459145,31.6163751 119.867676,31.331543 C120.276206,31.0467108 120.8304,30.9042969 121.530273,30.9042969 L122.575195,30.9042969 L122.575195,30.3818359 C122.575195,30.0725896 122.480795,29.8276376 122.291992,29.6469727 C122.103189,29.4663077 121.836265,29.3759766 121.491211,29.3759766 C121.181965,29.3759766 120.930502,29.4549146 120.736816,29.612793 C120.543131,29.7706714 120.446289,29.9602854 120.446289,30.1816406 L119.52832,30.1816406 L119.518555,30.1523438 C119.499023,29.7682272 119.680499,29.4166683 120.062988,29.0976562 C120.445477,28.7786442 120.93945,28.6191406 121.544922,28.6191406 C122.143883,28.6191406 122.625649,28.7713201 122.990234,29.0756836 C123.35482,29.3800471 123.537109,29.818682 123.537109,30.3916016 L123.537109,32.9355469 C123.537109,33.1243499 123.546875,33.3066397 123.566406,33.4824219 C123.585938,33.658204 123.621745,33.8307283 123.673828,34 L122.682617,34 Z M121.085938,33.296875 C121.434247,33.296875 121.748371,33.2073577 122.02832,33.0283203 C122.30827,32.849283 122.490559,32.6442069 122.575195,32.4130859 L122.575195,31.5537109 L121.496094,31.5537109 C121.108722,31.5537109 120.798667,31.6513662 120.565918,31.8466797 C120.333169,32.0419932 120.216797,32.2714831 120.216797,32.5351562 C120.216797,32.7695324 120.290038,32.9550774 120.436523,33.0917969 C120.583009,33.2285163 120.799478,33.296875 121.085938,33.296875 Z M127.082031,33.3505859 C127.401043,33.3505859 127.681802,33.2521169 127.924316,33.0551758 C128.166831,32.8582347 128.288086,32.6165379 128.288086,32.3300781 L129.152344,32.3300781 L129.162109,32.359375 C129.178385,32.8151064 128.975751,33.219562 128.554199,33.5727539 C128.132648,33.9259458 127.64193,34.1025391 127.082031,34.1025391 C126.313798,34.1025391 125.726239,33.8518905 125.319336,33.3505859 C124.912433,32.8492813 124.708984,32.2194048 124.708984,31.4609375 L124.708984,31.2558594 C124.708984,30.5039025 124.913247,29.8764674 125.321777,29.3735352 C125.730308,28.870603 126.317053,28.6191406 127.082031,28.6191406 C127.700524,28.6191406 128.20589,28.8014305 128.598145,29.1660156 C128.990399,29.5306008 129.180013,29.9781875 129.166992,30.5087891 L129.157227,30.5380859 L128.288086,30.5380859 C128.288086,30.2158187 128.174155,29.9415701 127.946289,29.715332 C127.718423,29.4890939 127.43034,29.3759766 127.082031,29.3759766 C126.577471,29.3759766 126.216961,29.5574526 126.000488,29.9204102 C125.784016,30.2833677 125.675781,30.728513 125.675781,31.2558594 L125.675781,31.4609375 C125.675781,32.0013048 125.783202,32.4513328 125.998047,32.8110352 C126.212892,33.1707375 126.574216,33.3505859 127.082031,33.3505859 Z M131.510742,27.4423828 L131.510742,28.7167969 L132.511719,28.7167969 L132.511719,29.4296875 L131.510742,29.4296875 L131.510742,32.6376953 C131.510742,32.8850924 131.562011,33.0592443 131.664551,33.1601562 C131.76709,33.2610682 131.902994,33.3115234 132.072266,33.3115234 C132.127604,33.3115234 132.188639,33.3050131 132.255371,33.2919922 C132.322103,33.2789713 132.38151,33.2626954 132.433594,33.2431641 L132.560547,33.9023438 C132.488932,33.9609378 132.383953,34.0089516 132.245605,34.0463867 C132.107258,34.0838218 131.9681,34.1025391 131.828125,34.1025391 C131.437498,34.1025391 131.126629,33.9845389 130.895508,33.7485352 C130.664387,33.5125314 130.548828,33.1422551 130.548828,32.6376953 L130.548828,29.4296875 L129.708984,29.4296875 L129.708984,28.7167969 L130.548828,28.7167969 L130.548828,27.4423828 L131.510742,27.4423828 Z"/>
  </g>
</svg>
