<svg xmlns="http://www.w3.org/2000/svg" xmlns:xlink="http://www.w3.org/1999/xlink" width="22" height="22" viewBox="0 0 22 22">
    <defs>
        <path id="a" d="M8.184 3.309c0 .006.001.013.004.02.425 1.04.477 1.567.298 2.709a.393.393 0 0 0 .015.187c.354 1.05.765 2.812 1.733 3.31.47.243.931.219 1.371.498.047.03.114.095.14.144.2.375.01.874.23 1.024.176.119.26.332.16.52-.408.77-.225 1.718.46 2.427.482.499-.066 1.481-.596 2.242-.189.272.06.635.379.557.504-.125.934-.336 1.442-.693.738-.518.951-1.144 1.674-1.573a.043.043 0 0 0 .018-.02c.225-.49.873-1.544.366-1.884-.473-.316-.58-1.1-1.015-1.67a.359.359 0 0 0-.206-.124c-.59-.14-.812-.631-1.248-.367-.326.199-.65.023-.717-.356-.022-.123-.071-.237-.282-.327-.16-.07-.22-.267-.143-.425l.003-.007c.103-.212-.349-.225-.58-.21-.066.003.178-.235.103-.2-.298.138-.616-.187-.566-.515.05-.332.11-.31.682-.316.639-.223.91.017.817.72.37.095.52-.06.447-.464a.392.392 0 0 1 .101-.331c.79-.84 1.41-1.177 2.51-1.435a.354.354 0 0 0 .265-.401c-.103-.65-.263-1.675-.705-1.794a.443.443 0 0 1-.268-.268c-.075-.24-.138-.395-.245-.507A8.118 8.118 0 0 1 19 10.896C19 15.372 15.418 19 11 19s-8-3.628-8-8.104C3 7.424 5.155 4.463 8.184 3.31zM12.813 3a7.874 7.874 0 0 1 1.648.587.362.362 0 0 0-.381.322c-.082.736-.146 1.371-.89.443-.616-.768-.776-1.168-.377-1.31v-.042z"/>
    </defs>
    <g fill="none" fill-rule="evenodd">
        <path d="M0 0h22v22H0z"/>
        <mask id="b" fill="#fff">
            <use xlink:href="#a"/>
        </mask>
        <use fill="#767676" xlink:href="#a"/>
        <g fill="#767676" mask="url(#b)">
            <path d="M-39-39H61V61H-39z"/>
        </g>
    </g>
</svg>
