<svg xmlns="http://www.w3.org/2000/svg" xmlns:xlink="http://www.w3.org/1999/xlink" width="22" height="22" viewBox="0 0 22 22">
    <defs>
        <path id="a" d="M7.238 13.476H9.97v3.295H7.238v-3.295zM3.72 11.978c.29-.574.987-1.847.987-1.847L3 8.958l4.592-.275 1.543 3.894-1.723-1.02-.782.87v4.194s-2.909-1.81-2.909-4.643zm6.073-3.906L6.947 6.35 8.18 4.18l2.836 1.74-1.221 2.152zM11.867 3c.804 0 1.668.162 2.462.643a194.74 194.74 0 0 1 1.093 1.774l1.913-.833-2.157 3.994-4.171-.738 1.756-.873-.383-1.049-.903-.553L8.78 3.71l-.01-.007S10.19 3 11.867 3zm3.847 10.089l-1.03-2.26 2.972-1.505 1.037 2.277-2.98 1.488zm.442.566l2.833-1.415.011-.005s-.279 3.424-2.833 4.719a90.49 90.49 0 0 1-.867.003c-.614 0-1.238-.003-1.238-.003L13.791 19l-2.34-3.893 2.805-3.134-.156 1.934 1.108.222.948-.474z"/>
    </defs>
    <g fill="none" fill-rule="evenodd">
        <path d="M0 0h22v22H0z"/>
        <mask id="b" fill="#fff">
            <use xlink:href="#a"/>
        </mask>
        <use fill="#767676" fill-rule="nonzero" xlink:href="#a"/>
        <g fill="#767676" mask="url(#b)">
            <path d="M-37-43H63V57H-37z"/>
        </g>
    </g>
</svg>
